HIERARCHY
ROOT pelvis
{
  OFFSET 0 100 0
  CHANNELS 6 Xposition Yposition Zposition Zrotation Xrotation Yrotation
  JOINT pelvis_right_femur
  {
    OFFSET -10.78128 -3.44521 -0.5502486
    CHANNELS 3 Zrotation Xrotation Yrotation
    JOINT right_femur_tibia
    {
      OFFSET -0.8047443 -44.0398 -0.1307829
      CHANNELS 3 Zrotation Xrotation Yrotation
      JOINT right_tibia_foot
      {
        OFFSET 3.006224 -47.83518 -5
        CHANNELS 3 Zrotation Xrotation Yrotation
        End Site
        {
          OFFSET 0 -5 15
        }
      }
    }
  }
  JOINT pelvis_left_femur
  {
    OFFSET 10.78128 -3.44521 -0.5502486
    CHANNELS 3 Zrotation Xrotation Yrotation
    JOINT left_femur_tibia
    {
      OFFSET 0.8047443 -44.0398 -0.1307829
      CHANNELS 3 Zrotation Xrotation Yrotation
      JOINT left_tibia_foot
      {
        OFFSET -4.370144 -48.10324 -4.275266
        CHANNELS 3 Zrotation Xrotation Yrotation
        End Site
        {
          OFFSET 0 -5 15
        }
      }
    }
  }
  JOINT pelvis_spine1
  {
    OFFSET 0 6.468898 -3.129235
    CHANNELS 3 Zrotation Xrotation Yrotation
    JOINT spine1
    {
      OFFSET 0 23.15396 4.99043
      CHANNELS 3 Zrotation Xrotation Yrotation
      JOINT spine2
      {
        OFFSET 0 20.79997 -5.064912
        CHANNELS 3 Zrotation Xrotation Yrotation
        JOINT neck
        {
          OFFSET 0 14.38658 9.616178
          CHANNELS 3 Zrotation Xrotation Yrotation
          End Site
          {
            OFFSET 0 20 0
          }
        }
      }
      JOINT right_manubrium
      {
        OFFSET -5.722621 16.35077 3.967754
        CHANNELS 3 Zrotation Xrotation Yrotation
        JOINT right_clavicle
        {
          OFFSET -13.16364 1.694482 -4.693211
          CHANNELS 3 Zrotation Xrotation Yrotation
          JOINT right_humerus
          {
            OFFSET -28.5034 -0.3100689 -2.792744
            CHANNELS 3 Zrotation Xrotation Yrotation
            JOINT right_radius
            {
              OFFSET -25.15693 0.02248979 -1.271978
              CHANNELS 3 Zrotation Xrotation Yrotation
              End Site
              {
                OFFSET -15 0 0
              }
            }
          }
        }
      }
      JOINT left_manubrium
      {
        OFFSET 5.722621 16.35077 3.967754
        CHANNELS 3 Zrotation Xrotation Yrotation
        JOINT left_clavicle
        {
          OFFSET 13.16364 1.694482 -4.693211
          CHANNELS 3 Zrotation Xrotation Yrotation
          JOINT left_humerus
          {
            OFFSET 29.39168 -1.063119 -2.237045
            CHANNELS 3 Zrotation Xrotation Yrotation
            JOINT left_radius
            {
              OFFSET 24.59957 -0.9528479 0.9047498
              CHANNELS 3 Zrotation Xrotation Yrotation
              End Site
              {
                OFFSET 15 -0 -0
              }
            }
          }
        }
      }
    }
  }
}
MOTION
Frames: 23
Frame Time: 0.0416666666667
0 103.5113 0 2.183155 -1.223739 0.2939428 1.246851 -10.04246 8.763062 -0 34.87963 -0 -5.27784 -18.00459 -2.462933 -8.033705 10.10966 -23.52467 -0 5.118714 -0 7.690912 -16.13834 26.59074 -4.328463 -5.055244 4.933121 1.995519 9.22171 -7.756525 0.8326221 22.82981 7.175704 3.246171 -23.10519 8.815036 6.373196 -19.77619 11.57209 86.31711 35.95027 -19.78239 -0 0 16.26831 -7.576534 8.243139 4.624379 5.470522 -19.48281 -1.69483 -94.78614 29.74839 22.96976 0 0 -15.9621 3.499575 17.90207 9.571418
0.3177841 103.4956 1.338349 2.022038 -1.139619 0.5030288 1.535596 -11.00066 8.686087 -0 34.98551 -0 -5.346868 -17.67418 -2.595939 -7.878966 10.26814 -23.42715 -0 5.139649 -0 7.567117 -16.39707 26.44091 -4.249389 -4.853331 4.846617 2.060263 9.200954 -7.801292 0.8424825 22.74134 7.19787 3.262367 -23.24877 8.846264 6.368644 -19.75053 11.57019 86.30901 35.93814 -19.81935 -0 0 16.17322 -7.612911 8.277224 4.652826 5.510403 -19.542 -1.694489 -94.66608 29.70278 22.84094 0 0 -16.25084 3.573688 17.81041 9.541342
0.6299835 103.4257 2.784389 1.792516 -0.9445776 0.6134416 1.92172 -12.46946 8.427916 -0 33.80051 -0 -5.42558 -17.01848 -2.453799 -7.680313 10.45985 -23.21529 -0 5.220421 -0 7.353647 -16.83589 26.17796 -4.17096 -4.552256 4.797566 2.220695 9.145212 -7.827393 0.8588958 22.56225 7.228389 3.302739 -23.45999 8.867672 6.354513 -19.65644 11.57928 86.30623 35.92466 -19.9339 -0 0 15.94027 -7.659936 8.334747 4.670996 5.65209 -19.65288 -1.692912 -94.42319 29.61554 22.465 0 0 -16.89657 3.73699 17.67956 9.416134
0.9540457 103.2354 4.416497 1.553833 -0.6042689 0.6032549 2.289634 -14.33592 7.950986 -0 30.63319 -0 -5.476435 -15.92132 -1.894023 -7.518811 10.67603 -22.85566 -0 5.423674 -0 7.039182 -17.47441 25.76473 -4.129139 -4.184294 4.843644 2.47339 9.046826 -7.786654 0.9035841 22.29647 7.252661 3.3764 -23.72283 8.878859 6.297277 -19.44032 11.60368 86.3354 35.9096 -20.16905 -0 0 15.52859 -7.716836 8.419645 4.670896 5.926386 -19.83797 -1.691951 -94.02919 29.4879 21.7694 0 0 -17.96773 3.990926 17.5135 9.165123
1.309868 102.8525 6.294632 1.387933 -0.1394647 0.5340821 2.483364 -16.33784 7.333299 -0 25.52735 -0 -5.473644 -14.38848 -0.948613 -7.461912 10.92761 -22.35219 -0 5.824397 -0 6.614359 -18.25767 25.1609 -4.147684 -3.814771 4.980386 2.751666 8.924647 -7.66675 0.9815776 22.00733 7.260786 3.472495 -24.00595 8.889152 6.171396 -19.12453 11.611 86.41805 35.89063 -20.50011 -0 0 14.97081 -7.789124 8.532057 4.663889 6.311632 -20.10849 -1.668794 -93.49474 29.33261 20.81588 0 0 -19.3445 4.287711 17.3132 8.823722
1.696866 102.2533 8.451279 1.342243 0.4243935 0.4837168 2.433834 -18.18909 6.624923 -0 18.9552 -0 -5.422143 -12.57118 0.2653157 -7.509034 11.22496 -21.70706 -0 6.480023 -0 6.044478 -19.07588 24.31467 -4.222908 -3.517814 5.138359 2.979294 8.793427 -7.522208 1.05176 21.776 7.273448 3.566975 -24.268 8.899935 5.979147 -18.80065 11.53748 86.56879 35.86902 -20.85411 -0 0 14.32932 -7.880136 8.672556 4.66882 6.759019 -20.44297 -1.595396 -92.85331 29.1539 19.7265 0 0 -20.80994 4.576968 17.08074 8.472274
2.105687 101.4778 10.93996 1.390696 1.097259 0.5057074 2.27774 -19.65956 5.769465 -0 11.75346 -0 -5.342178 -10.77578 1.525691 -7.6422 11.58051 -20.88735 -0 7.430676 -0 5.275493 -19.81593 23.20031 -4.306322 -3.319965 5.229328 3.124991 8.633495 -7.443226 1.073068 21.62029 7.321153 3.645453 -24.47219 8.908492 5.731007 -18.47861 11.39204 86.82584 35.84652 -21.21481 -0 0 13.63787 -7.986238 8.846474 4.700254 7.183649 -20.79793 -1.550049 -92.1559 28.9563 18.60568 0 0 -22.14519 4.828246 16.82538 8.199521
2.521548 100.5996 13.86964 1.418347 1.793859 0.6953604 2.177467 -20.47725 4.921175 -0 5.200033 -0 -5.327248 -9.315449 2.680824 -7.748718 11.97597 -19.92453 -0 8.910468 -0 4.222256 -20.27829 21.81085 -4.273269 -3.210632 5.195689 3.211443 8.477824 -7.490807 1.04586 21.50717 7.396618 3.701311 -24.62225 8.906067 5.487896 -18.07093 11.22137 87.24809 35.81855 -21.66088 -0 0 12.87691 -8.096823 9.065344 4.757676 7.423911 -21.10328 -1.611568 -91.50475 28.74583 17.62667 0 0 -23.07535 4.996298 16.53897 8.080032
2.922847 99.7738 17.3501 1.350161 2.448813 1.134009 2.226758 -20.3466 4.215256 -0 0.4543201 -0 -5.479933 -8.361518 3.55262 -7.696077 12.35915 -18.834 -0 11.20652 -0 2.784499 -20.14375 20.12173 -4.030159 -3.240165 5.037168 3.246816 8.301983 -7.665729 0.9771415 21.42699 7.469575 3.729696 -24.72501 8.859043 5.301736 -17.61004 11.05223 87.77708 35.78853 -22.15784 -0 0 12.0766 -8.238739 9.330216 4.856377 7.368362 -21.27027 -1.758845 -91.0149 28.51374 16.9806 0 0 -23.40255 5.05428 16.2132 8.151331
3.297613 99.17469 21.4233 1.116858 3.066084 1.794375 2.425704 -19.06289 3.722934 0 -1.913101 0 -5.862994 -7.866277 4.027344 -7.388516 12.56354 -17.6674 -0 14.59132 -0 0.9361163 -19.03206 18.17713 -3.504072 -3.433209 4.771267 3.241365 8.098344 -7.932936 0.8528907 21.36136 7.522883 3.70789 -24.76442 8.738762 5.183391 -17.11669 10.90763 88.36318 35.76251 -22.66295 -0 0 11.25839 -8.43201 9.64082 5.002317 7.010063 -21.24653 -1.969833 -90.76248 28.25942 16.77069 0 0 -23.06483 4.995815 15.84827 8.420288
3.653437 98.92563 26.05752 0.708093 3.52873 2.507946 2.771665 -16.67517 3.481188 0 -2.270669 0 -6.436154 -7.804734 4.15494 -6.899388 12.32123 -16.49917 -0 19.36786 -0 -1.203235 -16.63647 16.13384 -2.68713 -3.737819 4.491947 3.200334 7.924551 -8.190403 0.6624391 21.31777 7.550958 3.617208 -24.68398 8.535853 5.095787 -16.60803 10.82926 88.9426 35.74639 -23.09954 -0 0 10.48385 -8.699437 9.992926 5.207134 6.426514 -21.00915 -2.226658 -90.78156 27.98239 17.00852 0 0 -22.15185 4.828851 15.4481 8.854331
4.003434 99.09031 31.15848 0.2477859 3.596283 3.001608 3.224071 -13.35368 3.460078 0 -1.664037 0 -7.062875 -8.310849 4.120252 -6.465025 11.30615 -15.36234 -0 25.88499 -0 -3.355275 -12.91102 14.24473 -1.706671 -4.027901 4.398 3.108245 7.881532 -8.260977 0.4188499 21.34742 7.541536 3.463982 -24.42768 8.247025 5.02733 -16.13985 10.88966 89.41811 35.75275 -23.3273 -0 0 9.846513 -9.072303 10.37846 5.490857 5.72003 -20.58702 -2.488444 -91.04622 27.67546 17.62338 0 0 -20.87527 4.573185 15.02008 9.377546
4.35086 99.67169 36.54798 -0.02552633 3.112651 3.043451 3.579153 -9.092235 3.519192 0 -1.1027 0 -7.593811 -9.51647 4.116395 -6.253084 9.127853 -14.22957 -0 34.24454 -0 -5.14573 -8.329114 12.80564 -0.8393621 -4.142617 4.701908 2.939109 8.050235 -7.988634 0.1625639 21.50717 7.464936 3.279672 -23.99521 7.86403 5.048647 -15.77692 11.15634 89.70045 35.80069 -23.20835 -0 0 9.397759 -9.576905 10.79063 5.86359 4.969247 -20.1024 -2.710363 -91.44524 27.33328 18.46055 0 0 -19.49757 4.263791 14.57888 9.887711
4.713736 100.573 41.98649 0.1144318 2.074715 2.693703 3.534688 -3.785767 3.48905 0 -1.168889 0 -7.920276 -11.28922 4.245325 -6.13996 5.354338 -13.07399 -0 43.65654 -0 -6.271295 -3.995195 12.0558 -0.3979082 -3.983384 5.469181 2.689525 8.420125 -7.403229 -0.03461457 21.83097 7.281527 3.113157 -23.40403 7.392178 5.187088 -15.58622 11.58641 89.6645 35.9015 -22.64858 -0 0 9.195475 -10.258 11.21486 6.338805 4.249901 -19.70078 -2.874762 -91.83349 26.95241 19.34499 0 0 -18.25482 3.954526 14.14121 10.28966
5.094264 101.6723 47.29975 0.7214912 0.6287985 2.247777 2.950697 2.358848 3.346035 0 -2.1041 0 -7.956126 -13.26792 4.541843 -6.023301 -0.037935 -11.92244 -0 52.6254 -0 -6.73805 -0.8286453 11.97074 -0.5204511 -3.60209 6.58249 2.364607 8.880696 -6.650374 -0.1201302 22.33305 6.967013 3.000712 -22.65089 6.842933 5.371371 -15.72314 12.04731 89.12167 36.05994 -21.50401 -0 0 9.355201 -11.18395 11.62018 6.940601 3.662652 -19.41749 -2.939381 -92.12961 26.52598 20.18311 0 0 -17.31194 3.690803 13.72405 10.53145
5.496635 102.8436 52.38212 1.671683 -0.9083295 1.887474 1.910649 8.854307 3.187089 0 -3.837163 0 -7.662375 -15.12696 5.002292 -5.875415 -6.566823 -10.93545 -0 59.30561 -0 -6.674333 0.7823797 12.3722 -1.113459 -3.146411 7.852477 1.983388 9.307335 -5.8367 -0.09619902 22.9505 6.549442 2.939174 -21.76907 6.259466 5.476439 -16.20149 12.43716 88.04779 36.2345 -19.76408 -0 0 9.953268 -12.40782 11.97639 7.695793 3.341628 -19.23651 -2.873791 -92.30596 26.06391 20.93387 0 0 -16.71668 3.481375 13.3326 10.64062
5.924452 103.94 57.22357 2.783497 -2.252497 1.668303 0.5996774 15.20775 3.095093 0 -6.0802 0 -7.064999 -16.72516 5.575085 -5.62849 -13.60674 -10.0712 -0 62.38907 -0 -6.212355 1.061562 13.18151 -1.979702 -2.745704 9.060444 1.537547 9.631527 -5.047143 -0.01209746 23.57788 6.09988 2.898913 -20.83576 5.70264 5.400645 -16.97448 12.68956 86.5212 36.35502 -17.4992 -0 0 11.03404 -13.94301 12.25799 8.619587 3.318728 -19.0711 -2.684323 -92.40439 25.58362 21.65827 0 0 -16.36097 3.294287 12.95491 10.67622
6.392255 104.7354 61.92476 3.794665 -3.23375 1.555054 -0.6877173 21.05363 3.093628 0 -8.412831 0 -6.243866 -18.10869 6.181481 -5.097675 -20.48466 -9.108427 -0 61.22957 -0 -5.571667 0.6623046 14.44623 -2.846355 -2.513679 10.02802 1.045018 9.815186 -4.342785 0.07373929 24.09242 5.696455 2.84733 -19.93504 5.228765 5.101252 -17.9675 12.78709 84.65704 36.35317 -14.82622 -0 0 12.60061 -15.75408 12.4486 9.705802 3.527605 -18.8323 -2.414481 -92.48882 25.10469 22.41996 0 0 -16.08351 3.085577 12.57905 10.70317
6.933522 104.9733 66.60264 4.413234 -3.787254 1.455057 -1.602685 26.14234 3.115412 0 -10.40121 0 -5.301158 -19.41773 6.744858 -4.065731 -26.55649 -7.767186 -0 55.81131 -0 -5.000892 0.2704097 16.21101 -3.433117 -2.501922 10.66332 0.5715055 9.850119 -3.75892 0.1209225 24.38241 5.396008 2.764123 -19.13082 4.874519 4.615051 -19.07499 12.76793 82.61354 36.18108 -11.92063 -0 0 14.5643 -17.74311 12.53793 10.90832 3.851399 -18.49495 -2.137498 -92.59833 24.65067 23.21315 0 0 -15.74094 2.822576 12.20206 10.78693
7.572438 104.5587 71.27433 4.513327 -3.938813 1.33744 -1.949947 30.33122 3.041456 0 -11.71618 0 -4.321999 -20.74438 7.21103 -2.487815 -31.37727 -5.872743 -0 47.02462 -0 -4.577282 0.1916416 18.3201 -3.616806 -2.644011 10.96453 0.1753157 9.788831 -3.327943 0.1204027 24.39702 5.220125 2.650437 -18.46978 4.653173 4.057972 -20.18695 12.68585 80.60038 35.82364 -9.018802 -0 0 16.72291 -19.76066 12.52107 12.13228 4.148304 -18.09109 -1.931025 -92.73763 24.24535 24.00069 0 0 -15.20403 2.492077 11.82391 10.97885
8.32831 103.6024 76.01766 4.228563 -3.806696 1.210533 -1.883328 33.66938 2.901179 0 -12.10073 0 -3.337855 -22.01074 7.570819 -0.7270151 -34.76099 -3.763638 -0 36.74107 -0 -4.189074 0.2453617 20.23727 -3.506714 -2.885821 11.01552 -0.1241747 9.695937 -3.076988 0.108917 24.17816 5.150492 2.536882 -17.99258 4.564299 3.554741 -21.22046 12.5502 78.79591 35.30617 -6.367081 -0 0 18.84492 -21.68844 12.41845 13.27912 4.303547 -17.6675 -1.829509 -92.88519 23.90074 24.75274 0 0 -14.38879 2.10474 11.4454 11.29585
9.253606 102.3656 80.97451 3.80975 -3.583419 1.01264 -1.840021 36.31146 2.903287 0 -11.26862 0 -2.331511 -22.94122 7.847433 0.5241487 -36.88191 -2.206391 -0 26.84086 -0 -3.648938 -0.02181541 21.41916 -3.309066 -3.161994 10.97805 -0.344585 9.60362 -2.964167 0.1371866 23.82309 5.15443 2.465711 -17.69679 4.594751 3.18764 -22.16334 12.38126 77.2452 34.68188 -4.127922 -0 0 20.71862 -23.46412 12.28372 14.28618 4.245716 -17.26332 -1.833738 -93.02828 23.6229 25.44202 0 0 -13.25553 1.667005 11.06156 11.75003
10.35108 101.1596 86.26195 3.565003 -3.416961 0.547607 -2.336461 38.31012 3.322735 0 -9.007897 0 -1.313389 -23.03436 8.033406 0.6576726 -37.78421 -1.936814 -0 19.6016 -0 -2.92861 -0.6434354 21.86869 -3.335038 -3.506285 11.06216 -0.5199852 9.573948 -2.888726 0.2420659 23.46834 5.195276 2.473081 -17.51773 4.713861 3.051591 -22.86173 12.17873 76.19052 34.03678 -2.585034 -0 0 22.14292 -24.99661 12.16412 15.10314 3.993579 -16.89822 -1.903629 -93.14838 23.41392 26.04208 0 0 -11.8801 1.187842 10.67467 12.31695
